<?xml version="1.0" standalone="no"?>
<!DOCTYPE svg PUBLIC "-//W3C//DTD SVG 20010904//EN"
 "http://www.w3.org/TR/2001/REC-SVG-20010904/DTD/svg10.dtd">
<svg version="1.0" xmlns="http://www.w3.org/2000/svg"
 width="420.000000pt" height="420.000000pt" viewBox="0 0 420.000000 420.000000"
 preserveAspectRatio="xMidYMid meet">
<metadata>
Created by potrace 1.11, written by Peter Selinger 2001-2013
</metadata>
<g transform="translate(0.000000,420.000000) scale(0.100000,-0.100000)"
fill="#000000" stroke="none">
<path d="M2050 4090 c-27 -8 -586 -242 -635 -266 -16 -8 -122 -53 -235 -100
-113 -47 -234 -98 -270 -113 -36 -15 -107 -45 -158 -66 -53 -22 -107 -53 -126
-71 -65 -64 -62 17 -61 -1474 l0 -1355 29 -58 c132 -260 611 -453 1226 -494
194 -13 661 -5 712 12 7 2 40 6 73 9 33 3 85 10 115 16 30 6 69 13 85 16 76
13 239 59 325 91 208 77 346 166 442 284 78 95 71 -34 74 1474 2 1487 5 1413
-60 1477 -23 23 -81 53 -187 97 -85 35 -174 73 -199 84 -74 32 -91 39 -430
182 -179 75 -340 143 -357 151 -244 108 -299 124 -363 104z"/>
</g>
</svg>
